<svg height="800" viewBox="0 0 800 800" width="800" xmlns="http://www.w3.org/2000/svg" xmlns:xlink="http://www.w3.org/1999/xlink"><clipPath id="a"><path d="m0 600h600v-600h-600z"/></clipPath><g clip-path="url(#a)" fill-rule="evenodd" transform="matrix(1.3333333 0 0 -1.3333333 0 800)"><path d="m297.982 138.297c115.377 0 209.479 17.068 209.479 37.992 0 20.928-94.102 37.994-209.479 37.994-115.376 0-209.478-17.066-209.478-37.994 0-20.924 94.102-37.992 209.478-37.992" fill="#e6e6e6"/><path d="m369.777 197.984c-.136 6.481-.271 12.961-.406 19.442-9.754 12.48-16.541 27.388-23.291 42.328-1.398-19.983 1.053-39.965 4.254-59.947 6.047-1.694 12.314-2.834 19.443-1.823m-11.949-15.189c3.986-4.256 8.432-7.301 14.58-5.873-.066 1.754-.133 3.51-.201 5.264-5.137-.829-9.785-.19-14.379.609m-149.197 4.408c-2.566 6.379-9.157 15.731-9.094 22.604.272 30.347-20.746 51.552-31.816 79.062-58.591-52.783-113.285-80.084-159.995-55.086 23.857 62.451 115.135 37.715 130.022 134.073 6.588 187.334 163.397 225.03 252.348 127.996 13.939-2.355 26.853-5.861 34.021-15.798 14.918.972 28.705-.008 37.672-9.316 17.369 8.055 34.693 15.97 44.961 1.62.75-32.185-8.174-44.648-21.469-48.2 3.76-38.39-2.947-65.442-25.113-75.745-17.512-51.597-36.029-101.987-64.402-140.552l3.644-24.709c9.797.266 22.656 3.911 16.61-13.367-9.659-2.849-24.032-2.144-37.469.404 1.537-2.666 2.058-5.128 1.113-7.695-17.457-3.197-29.857-1.695-46.773 2.131-4.524 1.113-6.12 9.211-5.985 13.666-3.644 3.105-7.291 6.211-10.935 9.316-9.723.272-16.345-1.904-25.834.211-12.438 2.778-19.996 13.067-18.722 27.332 1.2 13.465-4.62 29.215-11.342 44.963-3.51-19.715-7.021-39.425-10.532-59.138 16.708-5.127 29.764-11.743 29.164-23.899-32.701-7.748-49.635 3.276-70.074 10.127" fill="#996"/><path d="m273.611 189.166c3.426-3.33 5.331-7.273 5.094-12.09-23.973-5.68-39.475-1.271-54.094 4.186 18.756-1.651 37.334-2.992 49 7.904" fill="#36361d"/><path d="m357.828 182.795c4.594-.799 9.242-1.438 14.379-.609l-.082 7.681c-6.342-.513-12.684.629-19.027 2.545 1.578-3.209 3.154-6.412 4.73-9.617m41.582.357c9.797.266 22.656 3.911 16.61-13.367-9.659-2.849-24.032-2.144-37.469.404 1.537-2.666 2.058-5.128 1.113-7.695-17.457-3.197-29.857-1.695-46.773 2.131-4.524 1.113-6.12 9.211-5.985 13.666 14.008-1.783 28.016-4.117 42.024-1.715 1.099-.045 2.256.061 3.478.346-.066 1.754-.133 3.51-.201 5.264 9.588-1.032 18.967-1.52 27.203.966" fill="#36361d"/><path d="m484.014 381.749c1.595 14.533.134 28.779-6.91 42.503 11.998 6.586 25.494 9.717 24.707 45.771-14.998 10.659-30.622-3.119-46.176-14.177-10.321 6.989-27.418 5.838-34.227-2.835-3.23 8.383-14.66 13.218-24.91 12.961-7.896 18.952-16.33 36.945-34.025 38.48-10.446-8.809-8.02-29.974-4.86-51.847-16.144-9.175-25.584-22.822-32.004-38.48 52.799-10.792 105.602-21.583 158.405-32.376" fill="#adad7d"/><path d="m484.014 381.749c-3.475-15.959-11.108-27.415-23.846-33.336-8.264-1.184-16.527-2.369-24.791-3.552-18.023-36.406-42.594-50.701-69.264-57.923 9.104 13.624 18.283 27.158 18.631 50.632-37.224 15.711-49.099 45.618-59.135 76.555 32.205 17.352 63.957 31.225 90.731 7.29 31.728 7.408 53.228-8.189 67.674-39.666" fill="#c4c49d"/><path d="m412.727 365.325c2.052 8.924 6.134 16.741 14.128 22.424 3.817-8.137 7.635-16.273 11.45-24.409-4.201-12.827-12.828-19.023-23.514-22.128-.687 8.038-1.377 16.076-2.064 24.113m-10.985-1.475c1.881 11.825-1.812 22.196-12.353 30.784-8.088-7.323-16.174-14.646-24.26-21.969 12.756-7.319 16.773-21.795 25.814-27.291 3.6 6.159 7.2 12.317 10.799 18.476" fill="#e8e8d3"/><path d="m421.318 383.688c-4.222 10.015 5.772 18.816 15.19 15.999 19.937-5.964 39.482-25.655 29.365-39.696-10.859-15.067-22.852-12.943-31.189.608-5.643 9.172-9.276 13.385-13.366 23.089m-53.06-18.431c-10.422-2.351-22.123 11.302-20.457 20.657 3.623 20.324 29.326 28.673 50.228 20.253 7.967-3.209 8.18-15.691 3.035-19.443-10.302-7.515-19.621-18.492-32.806-21.467" fill="#36361d"/><path d="m398.842 365.825c4.576 2.31 11.629 1.965 15.291-1.62 12.32-12.059 7.019-24.668-6.988-24.457-3.286.048-5.426.518-9.508 1.416-11.653 2.564-11.76 18.113 1.205 24.661"/><path d="m438.496 393.004c-.81 0-1.467-.657-1.467-1.467 0-.812.657-1.469 1.467-1.469.811 0 1.467.657 1.467 1.469 0 .81-.656 1.467-1.467 1.467m5.975.253c1.062-.708 2.129-1.418 3.191-2.127-2.834-9.415-8.308-10.637-15.191-7.494 7.125-1.135 12.859-.342 12 9.621m-60.91 12.456c-1.891-.304-3.782-.607-5.672-.912-1.239-8.857 2.726-13.656 12.558-13.873-8.894 2.818-11.494 7.648-6.886 14.785m5.494-2.886c.769 0 1.392-.622 1.392-1.393 0-.768-.623-1.392-1.392-1.392-.768 0-1.393.624-1.393 1.392 0 .771.625 1.393 1.393 1.393" fill="#fff"/><path d="m208.631 187.203c-3.033 7.535-6.063 15.068-9.094 22.604 12.855 9.129 27.006 11.447 42.025 9.236 3.649 10.414 12.423 23.742 16.626 41.088-17.499 29.709-52.045 98.022-49.03 186.55 16.83-18.902 34.911-35.563 68.048-25.112-47.768-91.487-57.409-69.624-17.133-161.456-3.51-19.715-7.021-39.425-10.532-59.138-17.711 3.832-31.299-.862-40.91-13.772" fill="#7a7a49"/><path d="m465.92 448.528c11.377 2.228 16.371 14.683 25.924 13.975 4.76-14.853-7.19-28.894-16.403-31.797-2.031 6.797-5.328 12.643-9.521 17.822m-98.428 7.494c2.279 6.594 4.654 12.905 9.113 12.962 1.627 10.92-2.562 18.518-8.505 25.113-4.414-9.496-3.754-22.636-.608-38.075" fill="#7a7a49"/><path d="m167.721 288.869c-58.591-52.783-113.285-80.084-159.995-55.086 23.857 62.451 115.135 37.715 130.022 134.073 8.31-34.183 18.426-59.927 29.973-78.987" fill="#adad7d"/><path d="m32.376 225.414c-8.437 1.348-16.66 4.094-24.65 8.369 2.868 7.508 6.717 13.744 11.285 19.094 12.781-5.529 17.624-14.492 13.365-27.463m48.508 5.856c-5.224-1.899-10.392-3.42-15.496-4.543 1.013 19.773-8.236 33.753-26.086 42.871 4.695 2.861 9.637 5.455 14.711 7.951 15.921-4.262 29.486-27.199 26.871-46.279m42.064 22.113c2.969 18.57-11.649 41.263-33.592 41.793-4.37-2.494-10.432-5.697-14.919-7.885l.518-1.391c22.445-2.857 34.355-15.914 34.091-41.224 3.767 2.187 10.088 6.209 13.902 8.707m33.102 25.271c-3.19-2.67-8.704-7.222-11.866-9.722-2.022 26.097-14.965 38.005-34.813 40.879 3.091 3.04 9.029 9.32 11.508 13.209 17.95-.585 38.024-25.569 35.171-44.366" fill="#7a7a49"/><path d="m253.772 326.766c-2.33 21.853 22.613 88.564 59.49 99.731-3.104-40.695 22.271-84.526 58.66-102.119-49.061-39.214-28.66-118.146-16.809-145.817-7.967.541-15.933 1.08-23.898 1.619-28.106 19.24-74.194 116.07-77.443 146.586" fill="#adad7d"/></g></svg>